<?xml version="1.0" encoding="UTF-8" standalone="no"?><!DOCTYPE svg PUBLIC "-//W3C//DTD SVG 1.1//EN" "http://www.w3.org/Graphics/SVG/1.1/DTD/svg11.dtd"><svg width="17493px" height="17493px" version="1.1" xmlns="http://www.w3.org/2000/svg" xmlns:xlink="http://www.w3.org/1999/xlink" xml:space="preserve" xmlns:serif="http://www.serif.com/" style="fill-rule:evenodd;clip-rule:evenodd;stroke-linejoin:round;stroke-miterlimit:2;"><g transform="matrix(4.16667,0,0,4.16667,0,0)"><g id="Artboard1" transform="matrix(1,0,0,1,394.653,308.938)"><rect x="-394.653" y="-308.938" width="4198.19" height="4198.19" style="fill:none;"/><clipPath id="_clip1"><rect x="-394.653" y="-308.938" width="4198.19" height="4198.19"/></clipPath><g clip-path="url(#_clip1)"><g transform="matrix(1.31057,0,0,1.31057,-1046.57,-960.852)"><path d="M2272.19,1676.95L1926,1676.95L1926,497.428L2272.19,497.428L2272.19,1676.95ZM3224.57,1568.86L3224.57,2629.33L2878.38,2629.33L2878.38,1568.86L3224.57,1568.86ZM3224.57,3473.62L3224.57,3700.76L2878.38,3700.76L2878.38,3473.62L3224.57,3473.62ZM3224.57,497.428L3224.57,724.571L2878.38,724.571L2878.38,497.428L3224.57,497.428ZM2272.19,2521.24L2272.19,3700.76L1926,3700.76L1926,2521.24L2272.19,2521.24ZM2629.33,1926L2629.33,2272.19L1568.86,2272.19L1568.86,1926L2629.33,1926ZM3700.76,2878.38L3700.76,3224.57L2521.24,3224.57L2521.24,2878.38L3700.76,2878.38ZM3700.76,973.618L3700.76,1319.81L2521.24,1319.81L2521.24,973.618L3700.76,973.618ZM1319.81,1568.86L1319.81,2629.33L973.618,2629.33L973.618,1568.86L1319.81,1568.86ZM1319.81,3473.62L1319.81,3700.76L973.618,3700.76L973.618,3473.62L1319.81,3473.62ZM1319.81,497.428L1319.81,724.571L973.618,724.571L973.618,497.428L1319.81,497.428ZM1676.95,2878.38L1676.95,3224.57L497.428,3224.57L497.428,2878.38L1676.95,2878.38ZM1676.95,973.618L1676.95,1319.81L497.428,1319.81L497.428,973.618L1676.95,973.618ZM724.571,1926L724.571,2272.19L497.428,2272.19L497.428,1926L724.571,1926ZM3700.76,1926L3700.76,2272.19L3473.62,2272.19L3473.62,1926L3700.76,1926Z"/></g></g></g></g></svg>